<?xml version="1.0" standalone="no"?>
<!DOCTYPE svg PUBLIC "-//W3C//DTD SVG 20010904//EN"
 "http://www.w3.org/TR/2001/REC-SVG-20010904/DTD/svg10.dtd">
<svg version="1.0" xmlns="http://www.w3.org/2000/svg"
 width="500.000000pt" height="500.000000pt" viewBox="0 0 500.000000 500.000000"
 preserveAspectRatio="xMidYMid meet">

<g transform="translate(0.000000,500.000000) scale(0.100000,-0.100000)"
fill="#000000" stroke="none">
<path d="M2394 4050 c-267 -38 -488 -141 -631 -294 -73 -77 -113 -145 -148
-251 -24 -69 -27 -96 -27 -200 -1 -102 3 -130 24 -185 66 -178 214 -320 459
-440 l66 -33 54 35 c30 19 81 57 114 84 33 26 103 77 155 112 52 35 96 65 98
67 2 1 -37 24 -85 50 -254 137 -396 282 -424 430 -48 260 117 446 428 484 182
22 356 -27 443 -126 76 -86 85 -113 84 -240 l0 -112 35 21 c103 61 166 126
207 213 27 56 29 86 13 136 -35 104 -152 180 -354 230 -91 23 -403 35 -511 19z"/>
<path d="M3690 3550 c-68 -54 -155 -118 -193 -142 -38 -24 -116 -76 -175 -117
-59 -41 -152 -106 -207 -144 -55 -38 -134 -99 -175 -136 -108 -97 -191 -158
-253 -185 -62 -28 -201 -121 -267 -178 -25 -22 -57 -59 -72 -83 -19 -30 -81
-83 -220 -187 -106 -80 -220 -164 -253 -186 -33 -23 -101 -74 -151 -114 -51
-40 -153 -121 -229 -180 -75 -60 -135 -108 -132 -108 11 0 359 200 452 260 33
22 103 63 155 93 176 100 364 217 455 283 50 36 152 105 227 154 76 49 166
117 201 152 34 35 108 95 162 134 111 80 233 188 254 226 7 14 120 126 250
250 198 188 315 309 299 308 -1 0 -59 -45 -128 -100z"/>
<path d="M3565 2808 c-139 -94 -243 -156 -306 -184 -111 -48 -165 -81 -327
-201 -65 -47 -134 -94 -154 -104 -20 -10 -39 -23 -43 -28 -3 -6 21 -28 53 -49
138 -94 202 -214 202 -382 0 -267 -184 -503 -465 -597 -71 -24 -95 -27 -220
-27 -122 0 -147 3 -197 23 -123 48 -192 117 -239 239 -30 79 -32 223 -3 305
l21 57 -29 0 c-81 0 -251 -95 -302 -168 -63 -91 -82 -219 -47 -312 39 -105
173 -212 328 -263 231 -76 479 -86 753 -31 246 49 474 168 641 334 97 95 167
206 199 310 75 245 34 476 -114 650 -31 36 -56 68 -56 72 0 4 18 19 39 32 22
14 78 70 126 126 48 55 134 142 193 193 157 137 167 146 162 147 -3 0 -100
-64 -215 -142z"/>
</g>
</svg>
